<?xml version="1.0" encoding="utf-8"?>
<!-- Generator: Adobe Illustrator 28.1.0, SVG Export Plug-In . SVG Version: 6.00 Build 0)  -->
<svg version="1.1" xmlns="http://www.w3.org/2000/svg" xmlns:xlink="http://www.w3.org/1999/xlink" x="0px" y="0px"
	 viewBox="0 0 512 512" style="enable-background:new 0 0 512 512;" xml:space="preserve">
<style type="text/css">
	.st0{fill:#0A8BA1;}
	.st1{fill:#FFFFFF;}
</style>
<g id="Layer_1">
	<path class="st0" d="M56.5,105.3C55.5,77.6,77.1,52,106.3,52h299.4c29.2,0,50.8,25.6,49.9,53.3c-0.9,26.6,0.3,61.2,9,89.3
		c8.7,28.2,23.4,46.1,47.5,48.4v26c-24.1,2.3-38.8,20.1-47.5,48.4c-8.7,28.1-9.9,62.7-9,89.3c1,27.7-20.6,53.3-49.9,53.3H106.3
		c-29.2,0-50.8-25.6-49.9-53.3c0.9-26.6-0.3-61.2-9-89.3C38.8,289.1,24.1,271.3,0,269v-26c24.1-2.3,38.8-20.1,47.5-48.4
		C56.2,166.5,57.4,132,56.5,105.3z"/>
</g>
<g id="Layer_1_copy">
	<path class="st0" d="M105.3,455.5c-27.7,1-53.3-20.6-53.3-49.9V106.3c0-29.2,25.6-50.8,53.3-49.9c26.6,0.9,61.2-0.3,89.3-9
		C222.9,38.8,240.7,24.1,243,0h26c2.3,24.1,20.1,38.8,48.4,47.5c28.1,8.7,62.7,9.9,89.3,9c27.7-1,53.3,20.6,53.3,49.9v299.4
		c0,29.2-25.6,50.8-53.3,49.9c-26.6-0.9-61.2,0.3-89.3,9c-28.2,8.7-46.1,23.4-48.4,47.5h-26c-2.3-24.1-20.1-38.8-48.4-47.5
		C166.5,455.8,132,454.6,105.3,455.5z"/>
</g>
<g id="Layer_2">
	<g>
		<g>
			<path class="st1" d="M111.1,111.8h69.4c47.7,0,68.1,22.2,68.1,67.3v11.7c0,30.1-9.2,48.9-29.7,57.3v0.8
				c24.7,8.4,34.3,30.1,34.3,61V335c0,45.2-23.8,69.4-69.8,69.4h-72.3V111.8z M175.1,230.9c17.1,0,27.6-7.5,27.6-30.9v-16.3
				c0-20.9-7.1-30.1-23.4-30.1h-22.2v77.3H175.1z M183.5,362.6c15.5,0,23.8-7.1,23.8-28.8v-25.5c0-27.2-8.8-35.5-29.7-35.5h-20.5
				v89.9H183.5z"/>
			<path class="st1" d="M272.9,372.6c0-43.5,11.7-69.8,46-105.8c35.1-37.2,45.2-56.9,45.2-84c0-26.3-9.2-33.4-23.8-33.4
				s-23.8,7.9-23.8,28.8v31.4h-43.5v-28.4c0-46.8,23.4-73.6,68.6-73.6c45.2,0,68.6,26.8,68.6,73.6c0,34.7-14.2,64.8-56.9,110
				c-27.6,29.3-34.7,44.7-34.7,65.2v6.3h87.4v41.8H272.9V372.6z"/>
		</g>
	</g>
</g>
</svg>
